<?xml version="1.0" ?><svg viewBox="0 0 48 48" xmlns="http://www.w3.org/2000/svg"><title/><g data-name="Crowd Patient" id="Crowd_Patient"><path style="fill:#Ffffff;" d="M28.35,38.12a6,6,0,0,1-8.7,0A9,9,0,0,0,15,46v1H33a10.25,10.25,0,0,0-.52-4A9,9,0,0,0,28.35,38.12Z"/><path style="fill:#Ffffff;" d="M24.29,30.29a2.93,2.93,0,0,1,3.46-.66,4,4,0,0,0-7.62.38C20.26,30,23.31,31.28,24.29,30.29Z"/><path style="fill:#Ffffff;" d="M20,34a4,4,0,0,0,8,0c0-3.08.11-1.47-.71-2.29a1,1,0,0,0-1.58,0c-1.4,1.38-3.86,1.06-5.71.36Z"/><path style="fill:#Ffffff;" d="M17.55,37.1a9.16,9.16,0,0,0-3.2-3,6,6,0,0,1-8.7,0A9,9,0,0,0,1,42v1H13.42A10.94,10.94,0,0,1,17.55,37.1Z"/><path style="fill:#Ffffff;" d="M10.29,26.29a2.93,2.93,0,0,1,3.46-.66A4,4,0,0,0,6.13,26C6.26,26,9.31,27.28,10.29,26.29Z"/><path style="fill:#Ffffff;" d="M14,30c0-3.08.11-1.47-.71-2.29a1,1,0,0,0-1.58,0c-1.4,1.38-3.86,1.06-5.71.36,0,2-.22,3.35,1.17,4.76A4,4,0,0,0,14,30Z"/><path style="fill:#Ffffff;" d="M44.36,35.64a8.79,8.79,0,0,0-2-1.52,6,6,0,0,1-8.7,0,9,9,0,0,0-3.2,3A11,11,0,0,1,34.58,43H47C47,40.19,46.61,37.87,44.36,35.64Z"/><path style="fill:#Ffffff;" d="M38.29,26.29a2.93,2.93,0,0,1,3.46-.66,4,4,0,0,0-7.62.38C34.26,26,37.31,27.28,38.29,26.29Z"/><path style="fill:#Ffffff;" d="M39.71,27.71c-1.4,1.38-3.86,1.06-5.71.36,0,2-.22,3.35,1.17,4.76A4,4,0,0,0,42,30c0-3.08.11-1.47-.71-2.29A1,1,0,0,0,39.71,27.71Z"/><path style="fill:#Ffffff;" d="M24,21A10,10,0,1,0,14,11,10,10,0,0,0,24,21ZM19,9h3V6h4V9h3v4H26v3H22V13H19Z"/></g></svg>